<mxfile host="app.diagrams.net" modified="2024-06-02T22:55:39.032Z" agent="Mozilla/5.0 (Windows NT 10.0; Win64; x64) AppleWebKit/537.36 (KHTML, like Gecko) Chrome/125.0.0.0 Safari/537.36" etag="uTuPzsgmybyEIhIn3onk" version="24.4.13" type="github">
  <diagram name="Page-1" id="yw2AShONh3QdBxU2YeRy">
    <mxGraphModel dx="792" dy="841" grid="1" gridSize="10" guides="1" tooltips="1" connect="1" arrows="1" fold="1" page="1" pageScale="1" pageWidth="827" pageHeight="1169" math="0" shadow="0">
      <root>
        <mxCell id="0" />
        <mxCell id="1" parent="0" />
        <mxCell id="CPIQrtYHX_L6vF5rat0H-1" value="User" style="rounded=1;whiteSpace=wrap;html=1;fontSize=16;fontStyle=1;fillColor=#dae8fc;strokeColor=#6c8ebf;strokeWidth=2;" vertex="1" parent="1">
          <mxGeometry x="322" y="40" width="198" height="60" as="geometry" />
        </mxCell>
        <mxCell id="CPIQrtYHX_L6vF5rat0H-2" value="Load Balancer :&lt;div&gt;HAproxy&lt;/div&gt;" style="rounded=1;whiteSpace=wrap;html=1;fontSize=16;fontStyle=1;fillColor=#dae8fc;strokeColor=#6c8ebf;strokeWidth=2;" vertex="1" parent="1">
          <mxGeometry x="322" y="200" width="198" height="70" as="geometry" />
        </mxCell>
        <mxCell id="CPIQrtYHX_L6vF5rat0H-3" value="" style="endArrow=classic;html=1;rounded=0;exitX=0.5;exitY=1;exitDx=0;exitDy=0;entryX=0.5;entryY=0;entryDx=0;entryDy=0;strokeWidth=2;" edge="1" parent="1" source="CPIQrtYHX_L6vF5rat0H-1" target="CPIQrtYHX_L6vF5rat0H-2">
          <mxGeometry width="50" height="50" relative="1" as="geometry">
            <mxPoint x="390" y="390" as="sourcePoint" />
            <mxPoint x="440" y="340" as="targetPoint" />
          </mxGeometry>
        </mxCell>
        <mxCell id="CPIQrtYHX_L6vF5rat0H-8" value="" style="edgeStyle=orthogonalEdgeStyle;rounded=0;orthogonalLoop=1;jettySize=auto;html=1;" edge="1" parent="1" source="CPIQrtYHX_L6vF5rat0H-4" target="CPIQrtYHX_L6vF5rat0H-2">
          <mxGeometry relative="1" as="geometry" />
        </mxCell>
        <mxCell id="CPIQrtYHX_L6vF5rat0H-4" value="DNS request for www.foobar.com" style="rounded=0;whiteSpace=wrap;html=1;strokeColor=none;fontSize=14;fontStyle=1" vertex="1" parent="1">
          <mxGeometry x="306" y="130" width="230" height="30" as="geometry" />
        </mxCell>
        <mxCell id="CPIQrtYHX_L6vF5rat0H-5" value="" style="endArrow=classic;html=1;rounded=0;exitX=1;exitY=0.5;exitDx=0;exitDy=0;entryX=0.5;entryY=0;entryDx=0;entryDy=0;strokeWidth=2;" edge="1" parent="1" source="CPIQrtYHX_L6vF5rat0H-2">
          <mxGeometry width="50" height="50" relative="1" as="geometry">
            <mxPoint x="538.41" y="270" as="sourcePoint" />
            <mxPoint x="538.41" y="370" as="targetPoint" />
            <Array as="points">
              <mxPoint x="538" y="235" />
            </Array>
          </mxGeometry>
        </mxCell>
        <mxCell id="CPIQrtYHX_L6vF5rat0H-6" value="Web Server 2:&lt;div&gt;Nginx&lt;/div&gt;" style="rounded=1;whiteSpace=wrap;html=1;fontSize=16;fontStyle=1;fillColor=#dae8fc;strokeColor=#6c8ebf;strokeWidth=2;" vertex="1" parent="1">
          <mxGeometry x="440" y="370" width="198" height="70" as="geometry" />
        </mxCell>
        <mxCell id="CPIQrtYHX_L6vF5rat0H-7" value="Web Server 1:&lt;div&gt;Nginx&lt;/div&gt;" style="rounded=1;whiteSpace=wrap;html=1;fontSize=16;fontStyle=1;fillColor=#dae8fc;strokeColor=#6c8ebf;strokeWidth=2;" vertex="1" parent="1">
          <mxGeometry x="200" y="370" width="198" height="70" as="geometry" />
        </mxCell>
        <mxCell id="CPIQrtYHX_L6vF5rat0H-10" value="Distributes requests" style="rounded=0;whiteSpace=wrap;html=1;strokeColor=none;fontSize=14;fontStyle=1" vertex="1" parent="1">
          <mxGeometry x="456" y="300" width="166" height="30" as="geometry" />
        </mxCell>
        <mxCell id="CPIQrtYHX_L6vF5rat0H-11" value="" style="endArrow=classic;html=1;rounded=0;entryX=0.5;entryY=0;entryDx=0;entryDy=0;strokeWidth=2;" edge="1" parent="1">
          <mxGeometry width="50" height="50" relative="1" as="geometry">
            <mxPoint x="320" y="235" as="sourcePoint" />
            <mxPoint x="298.40999999999997" y="370" as="targetPoint" />
            <Array as="points">
              <mxPoint x="298" y="235" />
            </Array>
          </mxGeometry>
        </mxCell>
        <mxCell id="CPIQrtYHX_L6vF5rat0H-12" value="Distributes requests" style="rounded=0;whiteSpace=wrap;html=1;strokeColor=none;fontSize=14;fontStyle=1" vertex="1" parent="1">
          <mxGeometry x="216" y="300" width="166" height="30" as="geometry" />
        </mxCell>
        <mxCell id="CPIQrtYHX_L6vF5rat0H-22" style="edgeStyle=orthogonalEdgeStyle;rounded=0;orthogonalLoop=1;jettySize=auto;html=1;exitX=0.5;exitY=1;exitDx=0;exitDy=0;entryX=1;entryY=0.5;entryDx=0;entryDy=0;strokeWidth=2;" edge="1" parent="1" source="CPIQrtYHX_L6vF5rat0H-13" target="CPIQrtYHX_L6vF5rat0H-20">
          <mxGeometry relative="1" as="geometry" />
        </mxCell>
        <mxCell id="CPIQrtYHX_L6vF5rat0H-13" value="Application Server 2" style="rounded=1;whiteSpace=wrap;html=1;fontSize=16;fontStyle=1;fillColor=#dae8fc;strokeColor=#6c8ebf;strokeWidth=2;" vertex="1" parent="1">
          <mxGeometry x="440" y="540" width="198" height="70" as="geometry" />
        </mxCell>
        <mxCell id="CPIQrtYHX_L6vF5rat0H-24" style="edgeStyle=orthogonalEdgeStyle;rounded=0;orthogonalLoop=1;jettySize=auto;html=1;exitX=0.5;exitY=1;exitDx=0;exitDy=0;entryX=0;entryY=0.5;entryDx=0;entryDy=0;strokeWidth=2;" edge="1" parent="1" source="CPIQrtYHX_L6vF5rat0H-14" target="CPIQrtYHX_L6vF5rat0H-20">
          <mxGeometry relative="1" as="geometry" />
        </mxCell>
        <mxCell id="CPIQrtYHX_L6vF5rat0H-14" value="Application Server 1" style="rounded=1;whiteSpace=wrap;html=1;fontSize=16;fontStyle=1;fillColor=#dae8fc;strokeColor=#6c8ebf;strokeWidth=2;" vertex="1" parent="1">
          <mxGeometry x="200" y="540" width="198" height="70" as="geometry" />
        </mxCell>
        <mxCell id="CPIQrtYHX_L6vF5rat0H-15" value="" style="endArrow=classic;html=1;rounded=0;exitX=0.5;exitY=1;exitDx=0;exitDy=0;entryX=0.5;entryY=0;entryDx=0;entryDy=0;strokeWidth=2;" edge="1" parent="1" source="CPIQrtYHX_L6vF5rat0H-7" target="CPIQrtYHX_L6vF5rat0H-14">
          <mxGeometry width="50" height="50" relative="1" as="geometry">
            <mxPoint x="390" y="510" as="sourcePoint" />
            <mxPoint x="440" y="460" as="targetPoint" />
          </mxGeometry>
        </mxCell>
        <mxCell id="CPIQrtYHX_L6vF5rat0H-16" value="" style="endArrow=classic;html=1;rounded=0;exitX=0.5;exitY=1;exitDx=0;exitDy=0;entryX=0.5;entryY=0;entryDx=0;entryDy=0;strokeWidth=2;" edge="1" parent="1" source="CPIQrtYHX_L6vF5rat0H-17">
          <mxGeometry width="50" height="50" relative="1" as="geometry">
            <mxPoint x="538.41" y="440" as="sourcePoint" />
            <mxPoint x="538.41" y="540" as="targetPoint" />
          </mxGeometry>
        </mxCell>
        <mxCell id="CPIQrtYHX_L6vF5rat0H-18" value="" style="endArrow=classic;html=1;rounded=0;exitX=0.5;exitY=1;exitDx=0;exitDy=0;entryX=0.5;entryY=0;entryDx=0;entryDy=0;strokeWidth=2;" edge="1" parent="1" target="CPIQrtYHX_L6vF5rat0H-17">
          <mxGeometry width="50" height="50" relative="1" as="geometry">
            <mxPoint x="538.41" y="440" as="sourcePoint" />
            <mxPoint x="538.41" y="540" as="targetPoint" />
          </mxGeometry>
        </mxCell>
        <mxCell id="CPIQrtYHX_L6vF5rat0H-17" value="HTTP Request" style="rounded=0;whiteSpace=wrap;html=1;strokeColor=none;fontSize=14;fontStyle=1" vertex="1" parent="1">
          <mxGeometry x="456" y="470" width="166" height="30" as="geometry" />
        </mxCell>
        <mxCell id="CPIQrtYHX_L6vF5rat0H-19" value="HTTP Request" style="rounded=0;whiteSpace=wrap;html=1;strokeColor=none;fontSize=14;fontStyle=1" vertex="1" parent="1">
          <mxGeometry x="216" y="470" width="166" height="30" as="geometry" />
        </mxCell>
        <mxCell id="CPIQrtYHX_L6vF5rat0H-20" value="Database Primary:&lt;div&gt;MySQL&lt;/div&gt;" style="rounded=1;whiteSpace=wrap;html=1;fontSize=16;fontStyle=1;fillColor=#dae8fc;strokeColor=#6c8ebf;strokeWidth=2;" vertex="1" parent="1">
          <mxGeometry x="322" y="700" width="198" height="70" as="geometry" />
        </mxCell>
        <mxCell id="CPIQrtYHX_L6vF5rat0H-25" value="Application Code" style="rounded=0;whiteSpace=wrap;html=1;strokeColor=none;fontSize=14;fontStyle=1" vertex="1" parent="1">
          <mxGeometry x="456" y="640" width="166" height="30" as="geometry" />
        </mxCell>
        <mxCell id="CPIQrtYHX_L6vF5rat0H-26" value="Application Code" style="rounded=0;whiteSpace=wrap;html=1;strokeColor=none;fontSize=14;fontStyle=1" vertex="1" parent="1">
          <mxGeometry x="216" y="640" width="166" height="30" as="geometry" />
        </mxCell>
        <mxCell id="CPIQrtYHX_L6vF5rat0H-27" value="Database Replication:&lt;div&gt;MySQL&lt;/div&gt;" style="rounded=1;whiteSpace=wrap;html=1;fontSize=16;fontStyle=1;fillColor=#dae8fc;strokeColor=#6c8ebf;strokeWidth=2;" vertex="1" parent="1">
          <mxGeometry x="322" y="870" width="198" height="70" as="geometry" />
        </mxCell>
        <mxCell id="CPIQrtYHX_L6vF5rat0H-28" value="" style="endArrow=classic;html=1;rounded=0;entryX=0.5;entryY=0;entryDx=0;entryDy=0;exitX=0.5;exitY=1;exitDx=0;exitDy=0;strokeWidth=2;" edge="1" parent="1" source="CPIQrtYHX_L6vF5rat0H-20" target="CPIQrtYHX_L6vF5rat0H-27">
          <mxGeometry width="50" height="50" relative="1" as="geometry">
            <mxPoint x="390" y="750" as="sourcePoint" />
            <mxPoint x="440" y="700" as="targetPoint" />
          </mxGeometry>
        </mxCell>
        <mxCell id="CPIQrtYHX_L6vF5rat0H-29" value="Replication" style="rounded=0;whiteSpace=wrap;html=1;strokeColor=none;fontSize=14;fontStyle=1" vertex="1" parent="1">
          <mxGeometry x="338" y="800" width="166" height="30" as="geometry" />
        </mxCell>
      </root>
    </mxGraphModel>
  </diagram>
</mxfile>
